<svg width="1340" height="257" viewBox="0 0 1340 257" fill="none" xmlns="http://www.w3.org/2000/svg">
<circle cx="961.5" cy="173" r="83.5" stroke="white" stroke-linecap="round" stroke-linejoin="round" stroke-dasharray="12 20"/>
<circle cx="592.5" cy="84" r="83.5" stroke="white" stroke-linecap="round" stroke-linejoin="round" stroke-dasharray="12 20"/>
<rect y="104.5" width="749" height="147" rx="33" fill="#BE72AA"/>
<rect x="18" y="66.5" width="1297" height="163" rx="40" fill="white"/>
<path d="M763.5 152C892.71 109.374 1207.64 84.8868 1314.71 101.648C1314.9 103.238 1315 104.857 1315 106.5V189.5C1315 211.591 1297.09 229.5 1275 229.5H58C48.7155 229.5 40.1708 226.336 33.3828 221.028C70.8811 200.726 146.051 163.444 211.5 152C303 136 618 200 763.5 152Z" fill="#F8E8F3" fill-opacity="0.5"/>
<path d="M49.375 213.5C49.6511 213.5 49.875 213.724 49.875 214C49.875 214.276 49.6511 214.5 49.375 214.5H39.4219C39.1457 214.5 38.9219 214.276 38.9219 214C38.9219 213.724 39.1457 213.5 39.4219 213.5H49.375ZM71.2734 213.5C71.5496 213.5 71.7734 213.724 71.7734 214C71.7734 214.276 71.5496 214.5 71.2734 214.5H61.3193C61.0434 214.5 60.8193 214.276 60.8193 214C60.8193 213.724 61.0434 213.5 61.3193 213.5H71.2734ZM93.1719 213.5C93.448 213.5 93.6719 213.724 93.6719 214C93.6719 214.276 93.448 214.5 93.1719 214.5H83.2178C82.9417 214.5 82.7178 214.276 82.7178 214C82.7178 213.724 82.9417 213.5 83.2178 213.5H93.1719ZM115.07 213.5C115.346 213.5 115.57 213.724 115.57 214C115.57 214.276 115.346 214.5 115.07 214.5H105.116C104.84 214.5 104.616 214.276 104.616 214C104.616 213.724 104.84 213.5 105.116 213.5H115.07ZM136.969 213.5C137.245 213.5 137.469 213.724 137.469 214C137.469 214.276 137.245 214.5 136.969 214.5H127.015C126.739 214.5 126.515 214.276 126.515 214C126.515 213.724 126.739 213.5 127.015 213.5H136.969ZM158.867 213.5C159.143 213.5 159.367 213.724 159.367 214C159.367 214.276 159.143 214.5 158.867 214.5H148.913C148.637 214.5 148.413 214.276 148.413 214C148.413 213.724 148.637 213.5 148.913 213.5H158.867ZM180.765 213.5C181.041 213.5 181.265 213.724 181.265 214C181.265 214.276 181.041 214.5 180.765 214.5H170.812C170.535 214.5 170.312 214.276 170.312 214C170.312 213.724 170.535 213.5 170.812 213.5H180.765ZM202.663 213.5C202.939 213.5 203.163 213.724 203.163 214C203.163 214.276 202.939 214.5 202.663 214.5H192.71C192.434 214.5 192.21 214.276 192.21 214C192.21 213.724 192.434 213.5 192.71 213.5H202.663ZM224.562 213.5C224.838 213.5 225.062 213.724 225.062 214C225.062 214.276 224.838 214.5 224.562 214.5H214.607C214.331 214.5 214.107 214.276 214.107 214C214.107 213.724 214.331 213.5 214.607 213.5H224.562ZM246.46 213.5C246.736 213.5 246.96 213.724 246.96 214C246.96 214.276 246.736 214.5 246.46 214.5H236.506C236.23 214.5 236.006 214.276 236.006 214C236.006 213.724 236.23 213.5 236.506 213.5H246.46ZM268.358 213.5C268.634 213.5 268.858 213.724 268.858 214C268.858 214.276 268.634 214.5 268.358 214.5H258.404C258.128 214.5 257.904 214.276 257.904 214C257.904 213.724 258.128 213.5 258.404 213.5H268.358ZM290.257 213.5C290.533 213.5 290.757 213.724 290.757 214C290.757 214.276 290.533 214.5 290.257 214.5H280.303C280.027 214.5 279.803 214.276 279.803 214C279.803 213.724 280.027 213.5 280.303 213.5H290.257ZM312.155 213.5C312.431 213.5 312.655 213.724 312.655 214C312.655 214.276 312.431 214.5 312.155 214.5H302.201C301.925 214.5 301.701 214.276 301.701 214C301.701 213.724 301.925 213.5 302.201 213.5H312.155ZM334.053 213.5C334.329 213.5 334.553 213.724 334.553 214C334.553 214.276 334.329 214.5 334.053 214.5H324.1C323.823 214.5 323.6 214.276 323.6 214C323.6 213.724 323.823 213.5 324.1 213.5H334.053ZM355.951 213.5C356.227 213.5 356.451 213.724 356.451 214C356.451 214.276 356.227 214.5 355.951 214.5H345.998C345.722 214.5 345.498 214.276 345.498 214C345.498 213.724 345.722 213.5 345.998 213.5H355.951ZM377.85 213.5C378.126 213.5 378.35 213.724 378.35 214C378.35 214.276 378.126 214.5 377.85 214.5H367.896C367.62 214.5 367.396 214.276 367.396 214C367.396 213.724 367.62 213.5 367.896 213.5H377.85ZM399.748 213.5C400.024 213.5 400.248 213.724 400.248 214C400.248 214.276 400.024 214.5 399.748 214.5H389.794C389.518 214.5 389.294 214.276 389.294 214C389.294 213.724 389.518 213.5 389.794 213.5H399.748ZM421.646 213.5C421.923 213.5 422.146 213.724 422.146 214C422.146 214.276 421.923 214.5 421.646 214.5H411.692C411.416 214.5 411.192 214.276 411.192 214C411.192 213.724 411.416 213.5 411.692 213.5H421.646ZM443.545 213.5C443.821 213.5 444.045 213.724 444.045 214C444.045 214.276 443.821 214.5 443.545 214.5H433.591C433.315 214.5 433.091 214.276 433.091 214C433.091 213.724 433.315 213.5 433.591 213.5H443.545ZM465.443 213.5C465.719 213.5 465.943 213.724 465.943 214C465.943 214.276 465.719 214.5 465.443 214.5H455.489C455.213 214.5 454.989 214.276 454.989 214C454.989 213.724 455.213 213.5 455.489 213.5H465.443ZM487.341 213.5C487.617 213.5 487.841 213.724 487.841 214C487.841 214.276 487.617 214.5 487.341 214.5H477.388C477.112 214.5 476.888 214.276 476.888 214C476.888 213.724 477.112 213.5 477.388 213.5H487.341ZM509.239 213.5C509.515 213.5 509.739 213.724 509.739 214C509.739 214.276 509.515 214.5 509.239 214.5H499.286C499.01 214.5 498.786 214.276 498.786 214C498.786 213.724 499.01 213.5 499.286 213.5H509.239ZM531.138 213.5C531.414 213.5 531.638 213.724 531.638 214C531.638 214.276 531.414 214.5 531.138 214.5H521.184C520.908 214.5 520.684 214.276 520.684 214C520.684 213.724 520.908 213.5 521.184 213.5H531.138ZM553.036 213.5C553.312 213.5 553.536 213.724 553.536 214C553.536 214.276 553.312 214.5 553.036 214.5H543.082C542.806 214.5 542.582 214.276 542.582 214C542.582 213.724 542.806 213.5 543.082 213.5H553.036ZM574.935 213.5C575.211 213.5 575.435 213.724 575.435 214C575.435 214.276 575.211 214.5 574.935 214.5H564.98C564.704 214.5 564.48 214.276 564.48 214C564.48 213.724 564.704 213.5 564.98 213.5H574.935ZM596.833 213.5C597.109 213.5 597.333 213.724 597.333 214C597.333 214.276 597.109 214.5 596.833 214.5H586.879C586.603 214.5 586.379 214.276 586.379 214C586.379 213.724 586.603 213.5 586.879 213.5H596.833ZM618.731 213.5C619.007 213.5 619.231 213.724 619.231 214C619.231 214.276 619.007 214.5 618.731 214.5H608.777C608.501 214.5 608.277 214.276 608.277 214C608.277 213.724 608.501 213.5 608.777 213.5H618.731ZM640.629 213.5C640.905 213.5 641.129 213.724 641.129 214C641.129 214.276 640.905 214.5 640.629 214.5H630.676C630.4 214.5 630.176 214.276 630.176 214C630.176 213.724 630.4 213.5 630.676 213.5H640.629ZM662.527 213.5C662.804 213.5 663.027 213.724 663.027 214C663.027 214.276 662.804 214.5 662.527 214.5H652.574C652.298 214.5 652.074 214.276 652.074 214C652.074 213.724 652.298 213.5 652.574 213.5H662.527ZM684.426 213.5C684.702 213.5 684.926 213.724 684.926 214C684.926 214.276 684.702 214.5 684.426 214.5H674.473C674.196 214.5 673.973 214.276 673.973 214C673.973 213.724 674.196 213.5 674.473 213.5H684.426ZM706.324 213.5C706.6 213.5 706.824 213.724 706.824 214C706.824 214.276 706.6 214.5 706.324 214.5H696.37C696.094 214.5 695.87 214.276 695.87 214C695.87 213.724 696.094 213.5 696.37 213.5H706.324ZM728.223 213.5C728.499 213.5 728.723 213.724 728.723 214C728.723 214.276 728.499 214.5 728.223 214.5H718.269C717.993 214.5 717.769 214.276 717.769 214C717.769 213.724 717.993 213.5 718.269 213.5H728.223ZM750.121 213.5C750.397 213.5 750.621 213.724 750.621 214C750.621 214.276 750.397 214.5 750.121 214.5H740.167C739.891 214.5 739.667 214.276 739.667 214C739.667 213.724 739.891 213.5 740.167 213.5H750.121ZM772.02 213.5C772.296 213.5 772.52 213.724 772.52 214C772.52 214.276 772.296 214.5 772.02 214.5H762.065C761.789 214.5 761.565 214.276 761.565 214C761.565 213.724 761.789 213.5 762.065 213.5H772.02ZM793.918 213.5C794.194 213.5 794.418 213.724 794.418 214C794.418 214.276 794.194 214.5 793.918 214.5H783.964C783.688 214.5 783.464 214.276 783.464 214C783.464 213.724 783.688 213.5 783.964 213.5H793.918ZM815.815 213.5C816.092 213.5 816.315 213.724 816.315 214C816.315 214.276 816.092 214.5 815.815 214.5H805.862C805.586 214.5 805.362 214.276 805.362 214C805.362 213.724 805.586 213.5 805.862 213.5H815.815ZM837.714 213.5C837.99 213.5 838.214 213.724 838.214 214C838.214 214.276 837.99 214.5 837.714 214.5H827.761C827.485 214.5 827.261 214.276 827.261 214C827.261 213.724 827.485 213.5 827.761 213.5H837.714ZM859.612 213.5C859.888 213.5 860.112 213.724 860.112 214C860.112 214.276 859.888 214.5 859.612 214.5H849.659C849.383 214.5 849.159 214.276 849.159 214C849.159 213.724 849.383 213.5 849.659 213.5H859.612ZM881.511 213.5C881.787 213.5 882.011 213.724 882.011 214C882.011 214.276 881.787 214.5 881.511 214.5H871.557C871.281 214.5 871.057 214.276 871.057 214C871.057 213.724 871.281 213.5 871.557 213.5H881.511ZM903.409 213.5C903.685 213.5 903.909 213.724 903.909 214C903.909 214.276 903.685 214.5 903.409 214.5H893.455C893.179 214.5 892.955 214.276 892.955 214C892.955 213.724 893.179 213.5 893.455 213.5H903.409ZM925.308 213.5C925.584 213.5 925.808 213.724 925.808 214C925.808 214.276 925.584 214.5 925.308 214.5H915.354C915.077 214.5 914.854 214.276 914.854 214C914.854 213.724 915.077 213.5 915.354 213.5H925.308ZM947.206 213.5C947.482 213.5 947.706 213.724 947.706 214C947.706 214.276 947.482 214.5 947.206 214.5H937.252C936.976 214.5 936.752 214.276 936.752 214C936.752 213.724 936.976 213.5 937.252 213.5H947.206ZM969.104 213.5C969.38 213.5 969.604 213.724 969.604 214C969.604 214.276 969.38 214.5 969.104 214.5H959.15C958.874 214.5 958.65 214.276 958.65 214C958.65 213.724 958.874 213.5 959.15 213.5H969.104ZM991.002 213.5C991.278 213.5 991.502 213.724 991.502 214C991.502 214.276 991.278 214.5 991.002 214.5H981.049C980.773 214.5 980.549 214.276 980.549 214C980.549 213.724 980.773 213.5 981.049 213.5H991.002ZM1012.9 213.5C1013.18 213.5 1013.4 213.724 1013.4 214C1013.4 214.276 1013.18 214.5 1012.9 214.5H1002.95C1002.67 214.5 1002.45 214.276 1002.45 214C1002.45 213.724 1002.67 213.5 1002.95 213.5H1012.9ZM1034.8 213.5C1035.08 213.5 1035.3 213.724 1035.3 214C1035.3 214.276 1035.08 214.5 1034.8 214.5H1024.85C1024.57 214.5 1024.35 214.276 1024.35 214C1024.35 213.724 1024.57 213.5 1024.85 213.5H1034.8ZM1056.7 213.5C1056.97 213.5 1057.2 213.724 1057.2 214C1057.2 214.276 1056.97 214.5 1056.7 214.5H1046.74C1046.47 214.5 1046.24 214.276 1046.24 214C1046.24 213.724 1046.47 213.5 1046.74 213.5H1056.7ZM1078.6 213.5C1078.87 213.5 1079.1 213.724 1079.1 214C1079.1 214.276 1078.87 214.5 1078.6 214.5H1068.64C1068.37 214.5 1068.14 214.276 1068.14 214C1068.14 213.724 1068.37 213.5 1068.64 213.5H1078.6ZM1100.49 213.5C1100.77 213.5 1100.99 213.724 1100.99 214C1100.99 214.276 1100.77 214.5 1100.49 214.5H1090.54C1090.26 214.5 1090.04 214.276 1090.04 214C1090.04 213.724 1090.26 213.5 1090.54 213.5H1100.49ZM1122.39 213.5C1122.67 213.5 1122.89 213.724 1122.89 214C1122.89 214.276 1122.67 214.5 1122.39 214.5H1112.44C1112.16 214.5 1111.94 214.276 1111.94 214C1111.94 213.724 1112.16 213.5 1112.44 213.5H1122.39ZM1144.29 213.5C1144.57 213.5 1144.79 213.724 1144.79 214C1144.79 214.276 1144.57 214.5 1144.29 214.5H1134.34C1134.06 214.5 1133.84 214.276 1133.84 214C1133.84 213.724 1134.06 213.5 1134.34 213.5H1144.29ZM1166.19 213.5C1166.46 213.5 1166.69 213.724 1166.69 214C1166.69 214.276 1166.46 214.5 1166.19 214.5H1156.24C1155.96 214.5 1155.74 214.276 1155.74 214C1155.74 213.724 1155.96 213.5 1156.24 213.5H1166.19ZM1188.09 213.5C1188.36 213.5 1188.59 213.724 1188.59 214C1188.59 214.276 1188.36 214.5 1188.09 214.5H1178.13C1177.86 214.5 1177.63 214.276 1177.63 214C1177.63 213.724 1177.86 213.5 1178.13 213.5H1188.09ZM1209.99 213.5C1210.26 213.5 1210.49 213.724 1210.49 214C1210.49 214.276 1210.26 214.5 1209.99 214.5H1200.03C1199.76 214.5 1199.53 214.276 1199.53 214C1199.53 213.724 1199.76 213.5 1200.03 213.5H1209.99ZM1231.88 213.5C1232.16 213.5 1232.38 213.724 1232.38 214C1232.38 214.276 1232.16 214.5 1231.88 214.5H1221.93C1221.65 214.5 1221.43 214.276 1221.43 214C1221.43 213.724 1221.65 213.5 1221.93 213.5H1231.88ZM1253.78 213.5C1254.06 213.5 1254.28 213.724 1254.28 214C1254.28 214.276 1254.06 214.5 1253.78 214.5H1243.83C1243.55 214.5 1243.33 214.276 1243.33 214C1243.33 213.724 1243.55 213.5 1243.83 213.5H1253.78ZM1275.68 213.5C1275.96 213.5 1276.18 213.724 1276.18 214C1276.18 214.276 1275.96 214.5 1275.68 214.5H1265.73C1265.45 214.5 1265.23 214.276 1265.23 214C1265.23 213.724 1265.45 213.5 1265.73 213.5H1275.68ZM1297.58 213.5C1297.86 213.5 1298.08 213.724 1298.08 214C1298.08 214.276 1297.86 214.5 1297.58 214.5H1287.62C1287.35 214.5 1287.12 214.276 1287.12 214C1287.12 213.724 1287.35 213.5 1287.62 213.5H1297.58ZM27.4766 213.5C27.7527 213.5 27.9766 213.724 27.9766 214C27.9766 214.276 27.7527 214.5 27.4766 214.5H26.7764C26.5122 214.171 26.2519 213.838 25.998 213.5H27.4766Z" fill="#BE72AA" fill-opacity="0.5"/>
<path fill-rule="evenodd" clip-rule="evenodd" d="M1330.16 61.6655C1331.32 61.1197 1332.57 62.252 1332.14 63.4616L1330.12 69.0842L1334.21 73.4422C1335.09 74.3805 1334.39 75.9136 1333.11 75.8757L1327.14 75.6994L1324.26 80.9282C1323.64 82.0549 1321.96 81.8708 1321.6 80.6372L1319.93 74.9055L1314.06 73.7801C1312.8 73.5376 1312.46 71.8906 1313.52 71.1664L1318.45 67.8005L1317.71 61.8754C1317.55 60.5987 1319.01 59.7651 1320.03 60.5519L1324.75 64.2025L1330.16 61.6655Z" fill="#F8E8F3"/>
<path d="M1310.9 65.9354C1309.8 66.5708 1308.39 66.1923 1307.76 65.0916L1306.62 63.0397L1304.62 64.241C1303.51 64.8834 1302.09 64.5048 1301.46 63.4042C1300.82 62.3035 1301.2 60.8908 1302.3 60.2553L1304.31 59.0465L1303.15 57.1184C1302.51 56.0058 1302.89 54.593 1303.99 53.9576C1305.09 53.3222 1306.5 53.7007 1307.14 54.8013L1308.31 56.7406L1310.3 55.6381C1311.39 55.0096 1312.8 55.3882 1313.44 56.4888C1314.07 57.5894 1313.69 59.0022 1312.59 59.6377L1310.61 60.7338L1311.75 62.7985C1312.38 63.8871 1312 65.2999 1310.9 65.9354ZM1307.17 60.9961L1309.09 64.3352C1309.3 64.6899 1309.77 64.8162 1310.14 64.6045C1310.5 64.3928 1310.63 63.9215 1310.42 63.5549L1308.5 60.2277L1311.84 58.2999C1312.19 58.0951 1312.32 57.6238 1312.1 57.2572C1311.89 56.8905 1311.42 56.7642 1311.05 56.9759L1307.73 58.8969L1305.81 55.5697C1305.59 55.1911 1305.12 55.0768 1304.76 55.2885C1304.39 55.5001 1304.26 55.9714 1304.48 56.3381L1306.4 59.6652L1303.07 61.5862C1302.69 61.8048 1302.58 62.2691 1302.79 62.6358C1303 63.0025 1303.47 63.1287 1303.84 62.917L1307.17 60.9961Z" fill="#F8E8F3"/>
</svg>
